<svg width="16" height="16" viewBox="0 0 16 16" fill="none" xmlns="http://www.w3.org/2000/svg">
<g clip-path="url(#clip0_38074_517)">
<path d="M12 13.333C12 12.2721 11.5786 11.2547 10.8284 10.5046C10.0783 9.75444 9.06087 9.33301 8 9.33301C6.93913 9.33301 5.92172 9.75444 5.17157 10.5046C4.42143 11.2547 4 12.2721 4 13.333" stroke="white" stroke-linecap="round" stroke-linejoin="round"/>
<path d="M8.00004 9.33333C9.4728 9.33333 10.6667 8.13943 10.6667 6.66667C10.6667 5.19391 9.4728 4 8.00004 4C6.52728 4 5.33337 5.19391 5.33337 6.66667C5.33337 8.13943 6.52728 9.33333 8.00004 9.33333Z" stroke="white" stroke-linecap="round" stroke-linejoin="round"/>
<path d="M8.00004 14.6663C11.6819 14.6663 14.6667 11.6816 14.6667 7.99967C14.6667 4.31778 11.6819 1.33301 8.00004 1.33301C4.31814 1.33301 1.33337 4.31778 1.33337 7.99967C1.33337 11.6816 4.31814 14.6663 8.00004 14.6663Z" stroke="white" stroke-linecap="round" stroke-linejoin="round"/>
</g>
<defs>
<clipPath id="clip0_38074_517">
<rect width="16" height="16" fill="white"/>
</clipPath>
</defs>
</svg>
